<svg width="26.000000" height="26.000000" viewBox="0 0 26 26" fill="none" xmlns="http://www.w3.org/2000/svg" xmlns:xlink="http://www.w3.org/1999/xlink">
	<desc>
			Created with Pixso.
	</desc>
	<defs>
		<radialGradient id="paint_radial_201_102_0" cx="0.000000" cy="0.000000" r="1.000000" gradientUnits="userSpaceOnUse" gradientTransform="translate(12.654 -7.18504) rotate(0) scale(27.084 26.5541)">
			<stop offset="0.508000" stop-color="#B7D118"/>
			<stop offset="0.572000" stop-color="#B2D019"/>
			<stop offset="0.643000" stop-color="#A5CD1D"/>
			<stop offset="0.717000" stop-color="#8FC922"/>
			<stop offset="0.793000" stop-color="#70C22A"/>
			<stop offset="0.871000" stop-color="#48BA34"/>
			<stop offset="0.949000" stop-color="#18B040"/>
			<stop offset="0.981000" stop-color="#02AB46"/>
		</radialGradient>
	</defs>
	<path id="Vector" d="M18.5483 4.68387C18.7212 4.0647 18.5234 2.54349 19.73 1.53679C20.936 0.530075 22.8125 0.6548 23.9414 1.71274C25.0703 2.77068 25.2524 4.75958 23.9165 6.0692C22.5806 7.37881 21.9653 6.64828 21.2202 7.35431C20.4751 8.06033 20.6045 8.63942 21.0654 9.06705C21.5288 9.49467 26.127 14.2053 25.9976 14.5059C25.8677 14.8066 22.7354 18.2833 22.2217 18.535C21.7085 18.7867 20.8086 18.7622 20.6294 17.9314C20.4497 17.1007 20.7588 15.4391 19.4731 15.0093C18.1895 14.5817 17.624 14.9336 16.3652 16.2432C15.1069 17.5528 14.5415 18.9871 15.5679 19.7177C16.5947 20.4482 17.8809 20.1453 18.394 21.0028C18.9072 21.8602 18.1372 22.6398 16.7764 23.8737C15.416 25.1075 14.3618 26.1143 14.1821 25.9895C14.0029 25.8626 10.0977 21.809 9.71387 21.3814C9.32764 20.9538 8.58252 20.5751 7.86475 21.2299C7.14453 21.8848 7.01758 24.0251 3.9873 24.0251C0.956543 24.0251 0.593262 20.8023 1.67236 19.4682C2.75146 18.1341 5.13867 18.0071 5.19092 17.1007C5.21387 16.6842 3.90283 15.5616 2.72607 14.3567C1.34277 12.938 0.0571289 11.4346 0.00244141 11.2586C-0.0996094 10.9312 2.87842 8.06033 3.44434 7.65721C4.00977 7.25409 4.65039 7.50577 4.95947 7.83316C5.26807 8.16057 5.3457 9.16727 5.60205 9.74635C5.85889 10.3254 7.06543 12.8444 9.96826 9.97353C12.8442 7.12714 10.123 5.89325 9.19824 5.64157C8.27393 5.38989 7.60791 5.30748 7.34912 4.38318C7.14453 3.65265 8.27393 2.79739 9.45508 1.68823C10.6362 0.579086 11.3291 0 11.6382 0C11.9473 0 16.0815 4.35646 16.6221 4.85982C17.1626 5.36316 17.4946 5.49011 17.8809 5.38766C18.2646 5.28967 18.4712 4.96227 18.5483 4.68387Z" fill="url(#paint_radial_201_102_0)" fill-opacity="1.000000" fill-rule="nonzero"/>
</svg>
