<svg width="21.704590" height="26.000015" viewBox="0 0 21.7046 26" fill="none" xmlns="http://www.w3.org/2000/svg" xmlns:xlink="http://www.w3.org/1999/xlink">
	<desc>
			Created with Pixso.
	</desc>
	<defs>
		<linearGradient id="paint_linear_201_105_0" x1="10.831961" y1="18.403564" x2="10.831961" y2="27.061028" gradientUnits="userSpaceOnUse">
			<stop stopColor="#FFB500"/>
			<stop offset="1.000000" stopColor="#FFE052"/>
		</linearGradient>
		<radialGradient id="paint_radial_201_106_0" cx="0.000000" cy="0.000000" r="1.000000" gradientUnits="userSpaceOnUse" gradientTransform="translate(10.8532 21.6406) rotate(90) scale(16.0758 16.1156)">
			<stop offset="0.015625" stopColor="#7F12F4"/>
			<stop offset="1.000000" stopColor="#E0C5FF"/>
		</radialGradient>
	</defs>
	<path id="Vector" d="M21.0371 18.4848C20.8394 18.4043 20.6226 18.383 20.4131 18.4237C20.2036 18.4644 20.0107 18.5652 19.8579 18.7137L19.7222 18.849C18.5552 20.0367 17.1621 20.9798 15.625 21.6233C14.0879 22.2667 12.437 22.5974 10.77 22.596C9.10254 22.5718 7.45654 22.218 5.92725 21.5553C4.39795 20.8925 3.01514 19.9337 1.85938 18.7346C1.71094 18.5759 1.5166 18.4676 1.30322 18.4247C1.08984 18.3817 0.868652 18.4064 0.669922 18.4952C0.461914 18.5747 0.284668 18.7187 0.164551 18.906C0.0444336 19.0933 -0.0126953 19.3141 0.00244141 19.536L0.00244141 24.9592C0.00244141 25.2352 0.112305 25.5 0.308105 25.6952C0.503418 25.8904 0.769043 26 1.0459 26L20.6196 26C20.8965 26 21.1616 25.8904 21.3574 25.6952C21.5532 25.5 21.6631 25.2352 21.6631 24.9592L21.6631 19.4839C21.6719 19.2738 21.6172 19.0658 21.5054 18.8875C21.3936 18.7091 21.2305 18.5687 21.0371 18.4848Z" fill="url(#paint_linear_201_105_0)" fill-opacity="1.000000" fill-rule="nonzero"/>
	<path id="Vector" d="M10.853 0C8.70703 0 6.60889 0.634842 4.82471 1.82423C3.04004 3.01364 1.64941 4.70418 0.828125 6.68208C0.00683594 8.65999 -0.208008 10.8364 0.210449 12.9361C0.629395 15.0359 1.6626 16.9646 3.18018 18.4784C4.69775 19.9922 6.63135 21.0231 8.73633 21.4408C10.8413 21.8585 13.0229 21.6441 15.0059 20.8248C16.9883 20.0056 18.6831 18.6182 19.8755 16.8381C21.0679 15.0581 21.7046 12.9653 21.7046 10.8244C21.6987 7.95528 20.5537 5.20525 18.52 3.17647C16.4863 1.14769 13.7295 0.00550842 10.853 0Z" fill="url(#paint_radial_201_106_0)" fill-opacity="1.000000" fill-rule="nonzero"/>
</svg>
